<svg width="512" height="512" viewBox="0 0 512 512" fill="none" xmlns="http://www.w3.org/2000/svg">
<path d="M90.2321 101.5L451 56V436.5L54 466L90.2321 101.5Z" fill="black"/>
<path d="M74.5 36C64.2892 36 54.4965 40.0562 47.2764 47.2764C40.0562 54.4965 36 64.2892 36 74.5V437.5C36 447.711 40.0562 457.503 47.2764 464.724C54.4965 471.944 64.2892 476 74.5 476H437.5C447.711 476 457.503 471.944 464.724 464.724C471.944 457.503 476 447.711 476 437.5V74.5C476 64.2892 471.944 54.4965 464.724 47.2764C457.503 40.0562 447.711 36 437.5 36H74.5ZM391.47 72.03C404.469 72.4123 416.808 77.8444 425.868 87.1736C434.929 96.5029 439.998 108.995 440 122C440 135.261 434.732 147.979 425.355 157.355C415.979 166.732 403.261 172 390 172C376.739 172 364.021 166.732 354.645 157.355C345.268 147.979 340 135.261 340 122C340.001 115.311 341.344 108.69 343.95 102.529C346.556 96.3687 350.372 90.7936 355.171 86.1342C359.971 81.4747 365.656 77.8256 371.891 75.4029C378.126 72.9803 384.784 71.8333 391.47 72.03ZM123.47 340.03C136.469 340.412 148.808 345.844 157.868 355.174C166.929 364.503 171.998 376.995 172 390C172 403.261 166.732 415.979 157.355 425.355C147.979 434.732 135.261 440 122 440C108.739 440 96.0215 434.732 86.6447 425.355C77.2678 415.979 72 403.261 72 390C72.0011 383.311 73.3444 376.69 75.9504 370.529C78.5563 364.369 82.3719 358.794 87.1713 354.134C91.9706 349.475 97.6561 345.826 103.891 343.403C110.126 340.98 116.784 339.833 123.47 340.03Z" fill="white"/>
</svg>
