<svg width="512" height="512" viewBox="0 0 512 512" fill="none" xmlns="http://www.w3.org/2000/svg">
<path d="M95 64H433V396H95V64Z" fill="black"/>
<path d="M74.5 36C64.2892 36 54.4965 40.0562 47.2764 47.2764C40.0562 54.4965 36 64.2892 36 74.5V437.5C36 447.711 40.0562 457.503 47.2764 464.724C54.4965 471.944 64.2892 476 74.5 476H437.5C447.711 476 457.503 471.944 464.724 464.724C471.944 457.503 476 447.711 476 437.5V74.5C476 64.2892 471.944 54.4965 464.724 47.2764C457.503 40.0562 447.711 36 437.5 36H74.5ZM256 206C269.261 206 281.979 211.268 291.355 220.645C300.732 230.021 306 242.739 306 256C306 269.261 300.732 281.979 291.355 291.355C281.979 300.732 269.261 306 256 306C242.739 306 230.021 300.732 220.645 291.355C211.268 281.979 206 269.261 206 256C206 242.739 211.268 230.021 220.645 220.645C230.021 211.268 242.739 206 256 206Z" fill="white"/>
</svg>
